G04 #@! TF.GenerationSoftware,KiCad,Pcbnew,10.0.3+dfsg-1*
G04 #@! TF.CreationDate,2026-06-16T15:24:42+02:00*
G04 #@! TF.ProjectId,CanLite,43616e4c-6974-4652-9e6b-696361645f70,rev?*
G04 #@! TF.SameCoordinates,Original*
G04 #@! TF.FileFunction,Soldermask,Top*
G04 #@! TF.FilePolarity,Negative*
%FSLAX46Y46*%
G04 Gerber Fmt 4.6, Leading zero omitted, Abs format (unit mm)*
G04 Created by KiCad (PCBNEW 10.0.3+dfsg-1) date 2026-06-16 15:24:42*
%MOMM*%
%LPD*%
G01*
G04 APERTURE LIST*
G04 Aperture macros list*
%AMRoundRect*
0 Rectangle with rounded corners*
0 $1 Rounding radius*
0 $2 $3 $4 $5 $6 $7 $8 $9 X,Y pos of 4 corners*
0 Add a 4 corners polygon primitive as box body*
4,1,4,$2,$3,$4,$5,$6,$7,$8,$9,$2,$3,0*
0 Add four circle primitives for the rounded corners*
1,1,$1+$1,$2,$3*
1,1,$1+$1,$4,$5*
1,1,$1+$1,$6,$7*
1,1,$1+$1,$8,$9*
0 Add four rect primitives between the rounded corners*
20,1,$1+$1,$2,$3,$4,$5,0*
20,1,$1+$1,$4,$5,$6,$7,0*
20,1,$1+$1,$6,$7,$8,$9,0*
20,1,$1+$1,$8,$9,$2,$3,0*%
%AMFreePoly0*
4,1,6,1.000000,0.000000,0.500000,-0.750000,-0.500000,-0.750000,-0.500000,0.750000,0.500000,0.750000,1.000000,0.000000,1.000000,0.000000,$1*%
%AMFreePoly1*
4,1,6,0.500000,-0.750000,-0.650000,-0.750000,-0.150000,0.000000,-0.650000,0.750000,0.500000,0.750000,0.500000,-0.750000,0.500000,-0.750000,$1*%
G04 Aperture macros list end*
%ADD10RoundRect,0.112500X-0.187500X-0.112500X0.187500X-0.112500X0.187500X0.112500X-0.187500X0.112500X0*%
%ADD11RoundRect,0.218750X0.256250X-0.218750X0.256250X0.218750X-0.256250X0.218750X-0.256250X-0.218750X0*%
%ADD12RoundRect,0.218750X-0.256250X0.218750X-0.256250X-0.218750X0.256250X-0.218750X0.256250X0.218750X0*%
%ADD13RoundRect,0.250000X-0.475000X0.250000X-0.475000X-0.250000X0.475000X-0.250000X0.475000X0.250000X0*%
%ADD14RoundRect,0.250000X0.250000X0.475000X-0.250000X0.475000X-0.250000X-0.475000X0.250000X-0.475000X0*%
%ADD15RoundRect,0.112500X0.187500X0.112500X-0.187500X0.112500X-0.187500X-0.112500X0.187500X-0.112500X0*%
%ADD16R,1.700000X1.700000*%
%ADD17O,1.700000X1.700000*%
%ADD18FreePoly0,90.000000*%
%ADD19FreePoly1,90.000000*%
%ADD20RoundRect,0.200000X0.275000X-0.200000X0.275000X0.200000X-0.275000X0.200000X-0.275000X-0.200000X0*%
%ADD21RoundRect,0.150000X-0.150000X0.825000X-0.150000X-0.825000X0.150000X-0.825000X0.150000X0.825000X0*%
%ADD22RoundRect,0.218750X0.218750X0.256250X-0.218750X0.256250X-0.218750X-0.256250X0.218750X-0.256250X0*%
%ADD23C,1.000000*%
%ADD24RoundRect,0.250000X0.475000X-0.250000X0.475000X0.250000X-0.475000X0.250000X-0.475000X-0.250000X0*%
%ADD25R,0.850000X1.100000*%
%ADD26R,0.750000X1.100000*%
%ADD27R,1.200000X1.000000*%
%ADD28R,1.550000X1.350000*%
%ADD29R,1.900000X1.350000*%
%ADD30R,1.170000X1.800000*%
%ADD31R,2.100000X2.100000*%
%ADD32C,2.100000*%
%ADD33RoundRect,0.225000X-0.225000X-0.250000X0.225000X-0.250000X0.225000X0.250000X-0.225000X0.250000X0*%
%ADD34RoundRect,0.200000X-0.200000X-0.275000X0.200000X-0.275000X0.200000X0.275000X-0.200000X0.275000X0*%
%ADD35R,2.000000X0.900000*%
%ADD36R,0.900000X2.000000*%
%ADD37R,5.000000X5.000000*%
%ADD38R,0.650000X1.060000*%
%ADD39RoundRect,0.250000X1.075000X-0.375000X1.075000X0.375000X-1.075000X0.375000X-1.075000X-0.375000X0*%
%ADD40FreePoly0,270.000000*%
%ADD41FreePoly1,270.000000*%
G04 APERTURE END LIST*
D10*
X111218000Y-85090000D03*
X113318000Y-85090000D03*
D11*
X111000000Y-54787500D03*
X111000000Y-53212500D03*
D12*
X111000000Y-58212500D03*
X111000000Y-59787500D03*
D11*
X133000000Y-82987500D03*
X133000000Y-81412500D03*
D13*
X104600000Y-85050000D03*
X104600000Y-86950000D03*
D14*
X109950000Y-71500000D03*
X108050000Y-71500000D03*
D11*
X123000000Y-75537500D03*
X123000000Y-73962500D03*
D15*
X110524000Y-90500000D03*
X108424000Y-90500000D03*
D16*
X136906000Y-68834000D03*
D17*
X136906000Y-66294000D03*
X136906000Y-63754000D03*
X136906000Y-61214000D03*
X136906000Y-58674000D03*
X136906000Y-56134000D03*
D18*
X138400000Y-86625000D03*
D19*
X138400000Y-85175000D03*
D11*
X109250000Y-59787500D03*
X109250000Y-58212500D03*
D12*
X124750000Y-73962500D03*
X124750000Y-75537500D03*
D11*
X116332000Y-88925500D03*
X116332000Y-87350500D03*
X135500000Y-82987500D03*
X135500000Y-81412500D03*
D20*
X138400000Y-90825000D03*
X138400000Y-89175000D03*
D21*
X135505000Y-86125000D03*
X134235000Y-86125000D03*
X132965000Y-86125000D03*
X131695000Y-86125000D03*
X131695000Y-91075000D03*
X132965000Y-91075000D03*
X134235000Y-91075000D03*
X135505000Y-91075000D03*
D22*
X120167500Y-90424000D03*
X118592500Y-90424000D03*
D11*
X121412000Y-88925500D03*
X121412000Y-87350500D03*
X123190000Y-88925500D03*
X123190000Y-87350500D03*
D23*
X104700000Y-82400000D03*
X106400000Y-56200000D03*
D24*
X109000000Y-55700000D03*
X109000000Y-53800000D03*
D22*
X106037500Y-73500000D03*
X104462500Y-73500000D03*
D25*
X124995000Y-102986000D03*
X123895000Y-102986000D03*
X122795000Y-102986000D03*
X121695000Y-102986000D03*
X120595000Y-102986000D03*
X119495000Y-102986000D03*
X118395000Y-102986000D03*
D26*
X117345000Y-102986000D03*
D27*
X127630000Y-96836000D03*
X127630000Y-93136000D03*
D28*
X127455000Y-102861000D03*
D29*
X124130000Y-92161000D03*
X118160000Y-92161000D03*
D30*
X116135000Y-102636000D03*
D31*
X131950000Y-99568000D03*
D32*
X137030000Y-99568000D03*
D31*
X106680000Y-99568000D03*
D32*
X111760000Y-99568000D03*
D33*
X104475000Y-76500000D03*
X106025000Y-76500000D03*
D34*
X104425000Y-75000000D03*
X106075000Y-75000000D03*
D35*
X113500000Y-52745000D03*
X113500000Y-54015000D03*
X113500000Y-55285000D03*
X113500000Y-56555000D03*
X113500000Y-57825000D03*
X113500000Y-59095000D03*
X113500000Y-60365000D03*
X113500000Y-61635000D03*
X113500000Y-62905000D03*
X113500000Y-64175000D03*
X113500000Y-65445000D03*
X113500000Y-66715000D03*
X113500000Y-67985000D03*
X113500000Y-69255000D03*
D36*
X116285000Y-70255000D03*
X117555000Y-70255000D03*
X118825000Y-70255000D03*
X120095000Y-70255000D03*
X121365000Y-70255000D03*
X122635000Y-70255000D03*
X123905000Y-70255000D03*
X125175000Y-70255000D03*
X126445000Y-70255000D03*
X127715000Y-70255000D03*
D35*
X130500000Y-69255000D03*
X130500000Y-67985000D03*
X130500000Y-66715000D03*
X130500000Y-65445000D03*
X130500000Y-64175000D03*
X130500000Y-62905000D03*
X130500000Y-61635000D03*
X130500000Y-60365000D03*
X130500000Y-59095000D03*
X130500000Y-57825000D03*
X130500000Y-56555000D03*
X130500000Y-55285000D03*
X130500000Y-54015000D03*
X130500000Y-52745000D03*
D37*
X121000000Y-60245000D03*
D38*
X105950000Y-78150000D03*
X105000000Y-78150000D03*
X104050000Y-78150000D03*
X104050000Y-80350000D03*
X105000000Y-80350000D03*
X105950000Y-80350000D03*
D23*
X109250000Y-61750000D03*
X109250000Y-66750000D03*
D20*
X119380000Y-88963000D03*
X119380000Y-87313000D03*
D39*
X110500000Y-78400000D03*
X110500000Y-75600000D03*
D40*
X119888000Y-84111000D03*
D41*
X119888000Y-85561000D03*
D20*
X125222000Y-88963000D03*
X125222000Y-87313000D03*
M02*
