M48
; DRILL file KiCad 10.0.3+dfsg-1 date 2026-06-16T15:25:09
; FORMAT={-:-/ absolute / metric / decimal}
; #@! TF.CreationDate,2026-06-16T15:25:09+02:00
; #@! TF.GenerationSoftware,Kicad,Pcbnew,10.0.3+dfsg-1
; #@! TF.FileFunction,Plated,1,2,PTH
FMAT,2
METRIC
; #@! TA.AperFunction,Plated,PTH,ViaDrill
T1C0.300
; #@! TA.AperFunction,Plated,PTH,ViaDrill
T2C0.400
; #@! TA.AperFunction,Plated,PTH,ComponentDrill
T3C1.000
; #@! TA.AperFunction,Plated,PTH,ComponentDrill
T4C1.100
%
G90
G05
T1
X103.0Y-53.75
X103.0Y-55.75
X103.0Y-57.75
X103.0Y-59.75
X103.0Y-61.75
X103.0Y-63.75
X103.0Y-65.75
X103.0Y-67.75
X103.0Y-69.75
X103.0Y-71.75
X103.0Y-73.75
X103.0Y-75.75
X103.0Y-77.75
X103.0Y-79.75
X103.0Y-81.75
X103.0Y-83.75
X103.0Y-85.75
X103.0Y-87.75
X103.0Y-89.75
X103.0Y-91.75
X103.0Y-93.75
X103.0Y-95.75
X103.0Y-97.75
X103.0Y-99.75
X103.0Y-101.75
X103.3Y-103.4
X103.8Y-88.7
X104.0Y-79.2
X104.4Y-88.7
X104.5Y-52.25
X104.6Y-79.2
X105.0Y-88.7
X105.0Y-103.75
X105.2Y-79.2
X106.3Y-52.2
X106.3Y-87.8
X107.0Y-103.75
X107.1Y-75.0
X108.0Y-60.75
X108.2Y-52.2
X109.0Y-103.75
X109.4Y-52.2
X109.8Y-86.8
X109.9Y-82.3
X109.9Y-82.9
X109.9Y-83.5
X109.9Y-84.1
X110.5Y-77.0
X110.6Y-52.2
X110.9Y-92.8
X111.0Y-60.8
X111.0Y-103.75
X111.25Y-67.75
X111.6Y-52.2
X111.75Y-60.8
X113.0Y-103.75
X113.75Y-70.75
X114.25Y-95.25
X114.25Y-97.5
X114.25Y-99.75
X114.25Y-102.0
X115.0Y-103.75
X115.1Y-52.7
X116.3Y-68.6
X117.8Y-60.2
X119.5Y-72.5
X121.0Y-57.0
X121.0Y-63.5
X124.2Y-60.3
X128.9Y-52.7
X129.0Y-103.75
X129.5Y-76.6
X129.6Y-97.3
X129.6Y-99.5
X129.6Y-102.0
X131.0Y-103.75
X132.2Y-52.7
X133.0Y-80.3
X133.0Y-103.75
X133.75Y-52.25
X134.2Y-88.6
X135.0Y-103.75
X135.5Y-80.3
X135.75Y-52.25
X137.0Y-103.75
X137.668Y-52.324
X139.0Y-103.75
X139.75Y-52.25
X140.8Y-103.5
X141.0Y-53.75
X141.0Y-55.75
X141.0Y-57.75
X141.0Y-59.75
X141.0Y-61.75
X141.0Y-63.75
X141.0Y-65.75
X141.0Y-67.75
X141.0Y-69.75
X141.0Y-71.75
X141.0Y-73.75
X141.0Y-75.7
X141.0Y-77.75
X141.0Y-79.75
X141.0Y-81.75
X141.0Y-83.75
X141.0Y-85.75
X141.0Y-87.75
X141.0Y-89.75
X141.0Y-91.75
X141.0Y-93.75
X141.0Y-95.75
X141.0Y-97.75
X141.0Y-99.75
X141.0Y-101.75
T2
X111.506Y-68.834
X113.538Y-83.566
X114.3Y-72.136
X115.316Y-88.9
X117.094Y-73.152
X117.348Y-67.564
X117.348Y-94.234
X118.11Y-88.392
X118.618Y-68.326
X120.396Y-101.6
X121.412Y-90.17
X122.0Y-75.5
X122.855Y-90.17
X124.206Y-90.424
X125.405Y-90.17
X126.492Y-71.882
X126.746Y-64.262
X126.746Y-65.532
X130.302Y-85.344
X135.636Y-87.884
T3
X136.906Y-56.134
X136.906Y-58.674
X136.906Y-61.214
X136.906Y-63.754
X136.906Y-66.294
X136.906Y-68.834
T4
X106.68Y-99.568
X111.76Y-99.568
X131.95Y-99.568
X137.03Y-99.568
M30
